# xmcd
#
# Track frame offsets: 
#        150
#        5131
#        28902
#        49076
#        84142
#        116549
#        128845
#        144847
#        175712
#        189214
#        191280
#        211878
#        230357
#        254573
#        281721
#        305189
#        326878
#
# Disc length: 4419 seconds
#
# Revision: 0
# Processed by: cddbd v1.5.2PL0 Copyright (c) Steve Scherf et al.
# Submitted via: ExactAudioCopy v0.99pb3
#
DISCID=ed114111
DTITLE=Benita Washington - Renaissance (2007)
DYEAR=2007
DGENRE=
TTITLE0=Renaissance (Prelude)
TTITLE1=The Lord Is Good
TTITLE2=Cast Your Cares
TTITLE3=Early
TTITLE4=Song Of The Lord
TTITLE5=Speak
TTITLE6=God Speaks (Reprise)
TTITLE7=I've Seen Him Work
TTITLE8=Romans 8:28 Praise (Reprise)
TTITLE9=John 3:5 (Interlude)
TTITLE10=Rescue
TTITLE11=Happy
TTITLE12=Gift From God
TTITLE13=El Shaddai
TTITLE14=Another Day
TTITLE15=I Choose To Rejoice
TTITLE16=Renaissance (Postlude)
EXTD=
EXTT0=
EXTT1=
EXTT2=
EXTT3=
EXTT4=
EXTT5=
EXTT6=
EXTT7=
EXTT8=
EXTT9=
EXTT10=
EXTT11=
EXTT12=
EXTT13=
EXTT14=
EXTT15=
EXTT16=
PLAYORDER=
